<?xml version="1.0" encoding="UTF-8" standalone="no"?>
<!-- Created with Inkscape (http://www.inkscape.org/) -->

<svg
   width="512"
   height="512"
   viewBox="0 0 135.46667 135.46667"
   version="1.1"
   id="svg5"
   inkscape:version="1.1 (c4e8f9ed74, 2021-05-24)"
   sodipodi:docname="favicon.svg"
   xmlns:inkscape="http://www.inkscape.org/namespaces/inkscape"
   xmlns:sodipodi="http://sodipodi.sourceforge.net/DTD/sodipodi-0.dtd"
   xmlns="http://www.w3.org/2000/svg"
   xmlns:svg="http://www.w3.org/2000/svg">
  <sodipodi:namedview
     id="namedview7"
     pagecolor="#ffffff"
     bordercolor="#999999"
     borderopacity="1"
     inkscape:pageshadow="0"
     inkscape:pageopacity="0"
     inkscape:pagecheckerboard="0"
     inkscape:document-units="px"
     showgrid="false"
     inkscape:snap-global="false"
     inkscape:object-paths="true"
     inkscape:zoom="0.35521163"
     inkscape:cx="-1254.1819"
     inkscape:cy="61.934909"
     inkscape:window-width="1920"
     inkscape:window-height="1079"
     inkscape:window-x="1366"
     inkscape:window-y="0"
     inkscape:window-maximized="1"
     inkscape:current-layer="layer1" />
  <defs
     id="defs2" />
  <g
     inkscape:label="Layer 1"
     inkscape:groupmode="layer"
     id="layer1">
    <path
       id="path2188"
       style="fill:#00ffff;stroke:none;stroke-width:1px;stroke-linecap:butt;stroke-linejoin:miter;stroke-opacity:1"
       d="m 378.99414,21.417969 -320.251952,1.49414 -6.949219,5.890625 -6.642578,-2.232422 -1.529297,8.189454 -9.460938,386.867184 4.009766,63.98633 8.791016,5.62695 419.339842,-10.39648 8.86133,-15.39453 L 58.550781,478.64648 57.267578,470.875 294.33789,456.71484 57.646484,458.75391 445.80078,433.51562 57.181641,443.59375 56.457031,432.5293 478.34961,413.43945 l 3.7168,-11.9414 z m -169.98,33.230453 c 0.0165,-0.02864 0.035,-0.02226 0.0551,0.02526 l 7.50784,17.722619 c 1.71548,5.707286 0.47186,13.197715 4.31643,17.621595 30.02607,23.310458 71.11844,23.608158 106.25995,13.638078 13.12171,-3.3869 23.47317,-5.463255 31.86351,-16.333553 -1.14439,7.504508 -7.08932,15.629693 -11.76686,20.420383 0.40581,22.89087 -0.30985,48.56167 16.62514,66.44778 10.73267,10.08724 22.60159,24.67953 38.3726,23.9401 17.66589,-1.80594 -1.04845,3.17409 -6.37821,7.3609 -16.61059,19.30796 -27.66246,44.95108 -31.50993,70.57592 -5.05244,18.84116 -0.87306,35.85088 16.73304,45.3271 -0.32019,4.47926 -18.10996,-9.89675 -26.41746,-10.57524 -30.68682,-5.71193 -67.3149,-5.73328 -90.28686,18.83616 -8.1759,4.28894 -3.03045,12.60048 -2.69089,19.42164 0.27728,3.91589 3.70422,17.82397 1.57276,14.09957 -6.63474,-16.43767 -11.87201,-33.77263 -30.09563,-40.68464 -24.65404,-16.11512 -55.21034,-17.13935 -83.44485,-12.84827 -13.81976,2.32951 -29.03263,-0.75592 -40.05785,9.88876 -17.424966,11.8519 2.42278,-8.75257 7.80401,-12.79776 1.8409,-22.44015 1.82472,-45.9534 -7.26905,-66.98962 -8.21992,-13.71657 -15.328613,-33.819 -33.268653,-35.68631 -18.966062,-5.29143 3.394833,-4.33276 11.353592,-4.23377 18.485851,-28.71329 25.884121,-63.94241 20.571921,-97.673 -2.85369,-3.641622 -14.393961,-23.18731 -2.78501,-14.556484 13.0828,12.08906 32.22108,13.329114 48.88585,17.607824 19.72392,3.89352 45.24265,4.03629 57.08479,-15.28429 l -3.37278,-20.682133 c 0.22404,-5.538703 0.0897,-14.159072 0.33751,-14.588615 z m 11.84263,44.002329 4.36693,26.771049 c 19.75301,17.14552 48.12481,18.68332 72.39435,12.03549 15.75423,-3.82598 25.05155,-19.48372 37.78253,-28.84431 -37.41861,11.2951 -81.08397,13.23123 -114.54381,-9.962229 z m -7.33105,0.323732 c -2.79063,3.190837 -5.97701,6.055587 -9.54895,8.348157 -23.23885,13.61752 -51.44463,4.91634 -75.6684,-1.31329 12.50529,11.21979 24.98682,22.75914 42.31249,25.033 15.23596,3.15522 34.38489,10.03819 47.98586,-0.90692 z m -97.24366,6.483837 c 3.89719,31.42612 -2.20256,63.7575 -17.99354,91.26952 2.80501,7.02175 28.10864,0.86043 39.43564,2.88834 10.89402,-20.11409 10.78214,-43.9081 7.62493,-65.9725 -4.46384,-12.2994 -20.04064,-18.44785 -29.06703,-28.18536 z m 223.73802,8.80276 c -8.36899,7.54291 -16.73218,15.09285 -25.09499,22.64289 1.20052,15.28992 -1.16858,32.36063 8.83031,45.37072 5.16029,9.1857 12.89258,13.69461 21.64644,15.61951 10.10149,2.11608 22.52665,0.64049 32.90818,0.59695 3.40414,-1.87606 -11.68941,-9.65085 -16.0741,-15.72512 -19.0356,-17.38273 -22.87796,-44.06529 -22.21584,-68.50495 z m -113.20756,20.90254 c 1.63227,10.01081 3.26505,20.02051 4.89731,30.03132 4.33279,7.35092 19.34803,11.59138 28.86268,6.51827 14.21832,-3.94938 22.69136,-17.9035 34.25593,-26.47486 -22.80217,5.14166 -48.33436,3.59671 -68.01592,-10.07473 z m -73.92345,1.09518 c 2.11841,17.06809 2.32783,34.74325 -2.7345,51.34484 -13.06535,19.44684 14.96706,9.64759 26.77334,11.83804 15.66886,4.84196 19.83066,-7.77481 17.3897,-21.2699 -4.39235,-19.00437 -28.91925,-27.26702 -41.42854,-41.91298 z m 11.81737,0.48214 c 3.74576,3.17308 7.48989,6.34661 11.23419,9.52141 14.66152,12.04428 28.5748,29.08646 49.61829,26.49554 l -5.72846,-35.11692 c -16.68232,10.85571 -37.52357,3.40118 -55.12402,-0.90003 z m 143.15394,6.54353 c -11.22607,10.13752 -22.44782,20.27982 -33.66586,30.42624 -0.82555,12.63956 5.4072,21.85509 14.89399,25.0881 8.07496,2.6365 36.71156,1.31252 37.02026,-3.43247 -15.39083,-12.53309 -19.1926,-33.25593 -18.24839,-52.08187 z m -74.26326,32.76354 c 0.17676,2.82191 0.92525,5.8774 1.3133,8.7798 -0.0436,14.08458 5.19659,13.0601 13.96411,1.97454 16.3839,-10.71952 -9.32234,-1.81335 -15.27741,-10.75434 z m -32.5064,1.14569 c 0.30764,3.62916 0.41069,7.27987 0.18828,10.91735 -7.50922,16.81848 11.39522,9.89593 22.0115,11.11941 4.67924,-2.93419 -16.35346,-15.264 -22.19978,-22.03676 z m 17.09582,1.75872 c -1.08575,0.003 -2.26632,0.0735 -3.54727,0.20434 4.63112,3.94341 9.26121,7.88803 13.89064,11.83345 0.18635,-8.78855 -2.74309,-12.0587 -10.34337,-12.03779 z m 49.56778,0.58777 c -4.48429,4.0572 -8.96711,8.11431 -13.44982,12.17325 -15.39512,9.54998 -0.43651,7.31579 8.7224,7.32645 19.30402,3.91144 6.54756,-7.51738 4.72742,-19.4997 z m 118.56176,26.02715 c -12.22201,0.10921 -24.44431,0.20833 -36.6667,0.27782 -13.97377,17.44576 -23.41402,39.09841 -23.66918,61.67443 1.16134,14.95803 20.79443,21.29589 30.09562,32.44899 -1.15322,-33.77278 10.55311,-67.1857 30.24026,-94.40124 z m -46.23631,0.33522 c -13.92501,0.0868 -27.85015,0.16996 -41.77523,0.24566 -1.53178,0.0139 -7.21118,11.80105 -10.76812,18.29432 -10.69316,18.10651 13.62356,25.4478 23.23066,36.75164 13.4968,16.91201 6.74952,-12.71808 12.70133,-21.29974 3.22584,-12.1862 10.92987,-23.98884 16.61136,-33.99188 z m -137.72166,0.15612 c -7.74051,-0.26023 -6.32279,6.18223 -0.70257,12.78169 2.69884,17.60017 16.87031,-8.19276 25.46464,-12.33627 -6.95684,0.0331 -13.91356,0.063 -20.87039,0.0941 -1.49408,-0.32987 -2.7859,-0.50239 -3.89168,-0.53956 z m 80.77923,0.16761 c -11.39349,0.0596 -22.78663,0.11842 -34.18016,0.1745 1.73637,6.09199 20.97755,18.59995 29.50326,27.18661 -2.3957,-10.02619 14.46599,-21.57344 4.6769,-27.36111 z m -94.49538,0.4523 c -15.17715,0.0683 -30.35428,0.13877 -45.53144,0.20434 13.20615,15.14821 20.17122,34.99705 19.89461,55.0322 5.23707,1.95178 19.59278,-16.87118 28.36904,-22.92989 17.91563,-8.29471 -5.57551,-22.95099 -2.73221,-32.30665 z m -54.65335,0.24567 c -12.10055,0.0513 -24.20108,0.10456 -36.301636,0.15384 12.282026,15.04334 22.152976,32.51388 25.365916,51.87981 3.76691,11.72338 0.60121,33.30016 3.68045,39.16471 10.20924,-13.04071 33.06251,-20.47764 29.37697,-39.68819 0.5487,-19.64695 -9.39848,-37.26598 -22.1217,-51.51017 z m 104.93287,2.49113 c 1.97362,12.10473 3.94773,24.20838 5.92131,36.31311 5.07514,2.26038 19.08761,-12.06296 29.602,-5.9833 -11.83877,-10.11268 -23.67665,-20.22637 -35.52331,-30.32981 z m -6.97057,2.54394 c -8.92382,8.09144 -17.83341,16.19895 -26.74809,24.30059 3.22952,8.88299 24.39497,11.00901 31.7602,11.0597 -1.6707,-10.24617 -3.34141,-25.11411 -5.01211,-35.36029 z m -33.90924,30.80737 c -9.38896,8.53925 -18.77963,17.07837 -28.15552,25.63225 -10.18966,6.69061 -1.786,5.64243 5.57003,4.56669 23.47246,-3.77332 48.94991,-1.83194 68.55547,12.94929 l -4.02024,-24.64728 c -7.78802,-8.68181 -26.99945,-16.59599 -41.94974,-18.50095 z m 75.47784,3.14779 c -1.72153,-0.0655 -3.52142,0.0632 -5.41391,0.42245 -8.8189,-0.45797 -16.35249,4.41666 -21.13673,11.48905 1.26929,9.98471 3.47302,21.60345 5.09936,32.2125 12.75143,-14.55946 32.81063,-20.2602 51.64103,-18.17951 13.48293,3.13798 6.09026,-2.30656 -1.00105,-7.96013 -8.94733,-7.52193 -17.13807,-17.52613 -29.1887,-17.98436 z m 28.99584,32.52245 c -2.24094,-0.0123 -4.52576,0.11404 -6.85118,0.38344 -16.28515,-0.28594 -32.45889,6.55284 -42.17932,19.8946 l 4.47485,27.44378 c 14.87726,-16.25953 36.65326,-25.17764 58.54272,-25.57027 7.35609,-3.12162 39.31954,7.16423 25.70113,-2.9044 -10.45331,-12.27284 -24.00157,-19.16068 -39.6882,-19.24715 z m -103.30043,0.18139 c -13.43675,-0.0184 -26.6752,2.97372 -40.11525,2.93195 -10.66385,2.1314 -17.26705,14.71245 -26.32333,20.90714 3.26257,2.86692 21.73784,-1.79887 30.80049,-1.66917 30.94199,-3.93954 62.60661,5.56441 86.92324,24.91131 l -4.72051,-28.94304 c -11.79062,-11.67279 -29.67875,-18.25127 -46.56464,-18.13819 z"
       transform="scale(0.26458334)"
       sodipodi:nodetypes="ccccccccccccccccccccscccccccccccccccccccccccccccscccccccccccccccccccccccccccccccccccccccccccccccccccsccscccccccccccccccscccscccccccccccccccccccccccccccccscccccsscccccsccccccc" />
  </g>
</svg>
